<svg width="768" height="768" viewBox="0 0 768 768" fill="none" xmlns="http://www.w3.org/2000/svg">
  <rect width="768" height="768" rx="36" fill="#ffffff"/>
  <g transform="translate(128 42) scale(0.9)">
    <defs>
      <linearGradient id="logo-green" x1="96" y1="72" x2="408" y2="440" gradientUnits="userSpaceOnUse">
        <stop stop-color="#70E239"/>
        <stop offset="0.5" stop-color="#20BF5A"/>
        <stop offset="1" stop-color="#007B5C"/>
      </linearGradient>
    </defs>
    <path d="M92 137C130 111 177 111 236 158L256 179L276 158C335 111 382 111 420 137" stroke="url(#logo-green)" stroke-width="28" stroke-linecap="round" stroke-linejoin="round"/>
    <path d="M76 176C130 151 185 155 256 204C327 155 382 151 436 176" stroke="url(#logo-green)" stroke-width="28" stroke-linecap="round" stroke-linejoin="round"/>
    <path d="M61 214H451" stroke="url(#logo-green)" stroke-width="28" stroke-linecap="round"/>
    <path d="M256 214V395" stroke="url(#logo-green)" stroke-width="28" stroke-linecap="round"/>
    <path d="M256 306C256 363 299 408 352 408C405 408 432 374 432 327V271H329" stroke="url(#logo-green)" stroke-width="28" stroke-linecap="round" stroke-linejoin="round"/>
    <path d="M352 313V351L323 330" stroke="url(#logo-green)" stroke-width="15" stroke-linecap="round" stroke-linejoin="round"/>
    <path d="M424 96L441 66M453 124L484 105M454 153H488" stroke="url(#logo-green)" stroke-width="17" stroke-linecap="round"/>
  </g>
  <text x="384" y="570" text-anchor="middle" fill="url(#logo-text)" font-family="Arial, sans-serif" font-size="76" font-weight="900">Task2Goal</text>
  <text x="384" y="628" text-anchor="middle" fill="#29C75A" font-family="Arial, sans-serif" font-size="24" font-weight="700">Hoàn thành task, đạt mục tiêu!</text>
  <defs>
    <linearGradient id="logo-text" x1="190" y1="520" x2="580" y2="600" gradientUnits="userSpaceOnUse">
      <stop stop-color="#70E239"/>
      <stop offset="1" stop-color="#007B5C"/>
    </linearGradient>
  </defs>
</svg>